<svg xmlns="http://www.w3.org/2000/svg" width="512" height="512" style="overflow: visible;" viewBox="0 0 512 512" data-svgdocument="" id="_mPUjW8EpZ66aTcZVXVB5C" class="fl-svgdocument" x="0" y="0" overflow="hidden" data-bbox="48 206.41442012337427 403.4278451050404 100.69998420366653"><defs id="_OiLYrzYugIr0evv4RzDSJ" transform="matrix(1.3220267295837402, 0, 0, 1.3220267295837402, -31.25429916381836, 168.0564727783203)" data-uid="o_f241c5k0c_4"></defs><g id="_ks-eefzL4QvJwXsYdeKTM" transform="matrix(0.8109161853790283, 0, 0, 0.8109161853790283, 48.8109130859375, 52.496192932128906)" data-uid="o_f241c5k0c_5"><path id="__5W-VSG5UCoTps9COQUrP" fill="#3658c7" d="M60.429 22.609v15.668c9.984 1.137 17.74 9.608 17.74 19.895c0 11.064-8.967 20.031-20.029 20.031   c-10.288 0-18.759-7.756-19.896-17.74H22.576c1.181 18.615 16.65 33.348 35.564 33.348c19.682 0 35.639-15.955 35.639-35.639   C93.779 39.259 79.047 23.791 60.429 22.609z" transform="matrix(1.4159890413284302, 0, 0, 1.4159890413284302, -10.108915328979492, 181.1529541015625)" data-uid="o_f241c5k0c_6"></path><path id="_lo3mKcL1gCX4sNmQTXPc_" fill="#14255c" transform="matrix(1.4159890413284302, 0, 0, 1.4159890413284302, -9.930641174316406, 180.83184814453125)" data-type="polygon" d="M42.013 10.077L42.013 30.642L17.709 6.339L6.307 17.743L30.61 42.045L10.043 42.045L10.043 58.172L58.14 58.172L58.14 10.077Z" data-uid="o_f241c5k0c_7"></path></g><path text="Gurucore" text-anchor="start" font-size="100" letter-spacing="0" side="left" offset="0" dx="0" dy="0" space="preserve" href="" font-family="Montserrat" font-scale="contain" transform="matrix(0.6085047721862793, 0, 0, 0.6085047721862793, 157.15496826171875, 289.1834716796875)" x="0" y="0" fill="#000000" font-weight="700" data-fl-textpath="" id="_Hw1xPhQG31zoWEZNDrpeS" data-uid="o_f241c5k0c_8" d="M 55.6-15.6L 55.6-36.1L 70.4-36.1L 70.4-7.7Q 64.7-3.4  57.2-1.1Q 49.7 1.2  42.1 1.2L 42.1 1.2Q 31.2 1.2  22.5-3.45Q 13.8-8.1  8.85-16.35Q 3.9-24.6  3.9-35L 3.9-35Q 3.9-45.4  8.85-53.65Q 13.8-61.9  22.6-66.55Q 31.4-71.2  42.4-71.2L 42.4-71.2Q 51.6-71.2  59.1-68.1Q 66.6-65  71.7-59.1L 71.7-59.1L 61.3-49.5Q 53.8-57.4  43.2-57.4L 43.2-57.4Q 36.5-57.4  31.3-54.6Q 26.1-51.8  23.2-46.7Q 20.3-41.6  20.3-35L 20.3-35Q 20.3-28.5  23.2-23.4Q 26.1-18.3  31.25-15.45Q 36.4-12.6  43-12.6L 43-12.6Q 50-12.6  55.6-15.6L 55.6-15.6ZM 122.90000000000002-53.8L 138.50000000000003-53.8L 138.50000000000003 0L 123.70000000000002 0L 123.70000000000002-6.4Q 120.60000000000002-2.9  116.30000000000003-1.05Q 112.00000000000003 0.8  107.00000000000003 0.8L 107.00000000000003 0.8Q 96.40000000000002 0.8  90.20000000000002-5.3Q 84.00000000000003-11.4  84.00000000000003-23.4L 84.00000000000003-23.4L 84.00000000000003-53.8L 99.60000000000002-53.8L 99.60000000000002-25.7Q 99.60000000000002-12.7  110.50000000000003-12.7L 110.50000000000003-12.7Q 116.10000000000002-12.7  119.50000000000003-16.35Q 122.90000000000002-20  122.90000000000002-27.2L 122.90000000000002-27.2L 122.90000000000002-53.8ZM 167.9-46.7Q 170.70000000000002-50.6  175.45000000000002-52.6Q 180.20000000000002-54.6  186.4-54.6L 186.4-54.6L 186.4-40.2Q 183.8-40.4  182.9-40.4L 182.9-40.4Q 176.20000000000002-40.4  172.4-36.65Q 168.60000000000002-32.9  168.60000000000002-25.4L 168.60000000000002-25.4L 168.60000000000002 0L 153 0L 153-53.8L 167.9-53.8L 167.9-46.7ZM 234.7-53.8L 250.3-53.8L 250.3 0L 235.5 0L 235.5-6.4Q 232.4-2.9  228.10000000000002-1.05Q 223.8 0.8  218.8 0.8L 218.8 0.8Q 208.20000000000002 0.8  202-5.3Q 195.8-11.4  195.8-23.4L 195.8-23.4L 195.8-53.8L 211.4-53.8L 211.4-25.7Q 211.4-12.7  222.3-12.7L 222.3-12.7Q 227.9-12.7  231.3-16.35Q 234.7-20  234.7-27.2L 234.7-27.2L 234.7-53.8ZM 290.8 0.8Q 282.20000000000005 0.8  275.35-2.75Q 268.5-6.3  264.65000000000003-12.6Q 260.8-18.9  260.8-26.9L 260.8-26.9Q 260.8-34.9  264.65000000000003-41.2Q 268.5-47.5  275.35-51.05Q 282.20000000000005-54.6  290.8-54.6L 290.8-54.6Q 299.3-54.6  305.65000000000003-51.05Q 312-47.5  314.90000000000003-40.9L 314.90000000000003-40.9L 302.8-34.4Q 298.6-41.8  290.70000000000005-41.8L 290.70000000000005-41.8Q 284.6-41.8  280.6-37.8Q 276.6-33.8  276.6-26.9L 276.6-26.9Q 276.6-20  280.6-16Q 284.6-12  290.70000000000005-12L 290.70000000000005-12Q 298.70000000000005-12  302.8-19.4L 302.8-19.4L 314.90000000000003-12.8Q 312-6.4  305.65000000000003-2.8Q 299.3 0.8  290.8 0.8L 290.8 0.8ZM 348.8 0.8Q 340.3 0.8  333.55-2.75Q 326.8-6.3  323-12.6Q 319.2-18.9  319.2-26.9L 319.2-26.9Q 319.2-34.9  323-41.2Q 326.8-47.5  333.55-51.05Q 340.3-54.6  348.8-54.6L 348.8-54.6Q 357.3-54.6  364-51.05Q 370.7-47.5  374.5-41.2Q 378.3-34.9  378.3-26.9L 378.3-26.9Q 378.3-18.9  374.5-12.6Q 370.7-6.3  364-2.75Q 357.3 0.8  348.8 0.8L 348.8 0.8ZM 348.8-12Q 354.8-12  358.65-16.05Q 362.5-20.1  362.5-26.9L 362.5-26.9Q 362.5-33.7  358.65-37.75Q 354.8-41.8  348.8-41.8L 348.8-41.8Q 342.8-41.8  338.9-37.75Q 335-33.7  335-26.9L 335-26.9Q 335-20.1  338.9-16.05Q 342.8-12  348.8-12L 348.8-12ZM 403.6-46.7Q 406.4-50.6  411.15-52.6Q 415.9-54.6  422.1-54.6L 422.1-54.6L 422.1-40.2Q 419.5-40.4  418.6-40.4L 418.6-40.4Q 411.9-40.4  408.1-36.65Q 404.3-32.9  404.3-25.4L 404.3-25.4L 404.3 0L 388.7 0L 388.7-53.8L 403.6-53.8L 403.6-46.7ZM 483.59999999999997-26.7Q 483.59999999999997-26.4  483.3-22.5L 483.3-22.5L 442.59999999999997-22.5Q 443.7-17.5  447.8-14.6Q 451.9-11.7  458-11.7L 458-11.7Q 462.2-11.7  465.45-12.95Q 468.7-14.2  471.5-16.9L 471.5-16.9L 479.8-7.9Q 472.2 0.8  457.59999999999997 0.8L 457.59999999999997 0.8Q 448.5 0.8  441.5-2.75Q 434.5-6.3  430.7-12.6Q 426.9-18.9  426.9-26.9L 426.9-26.9Q 426.9-34.8  430.65-41.15Q 434.4-47.5  440.95-51.05Q 447.5-54.6  455.59999999999997-54.6L 455.59999999999997-54.6Q 463.5-54.6  469.9-51.2Q 476.3-47.8  479.95-41.45Q 483.59999999999997-35.1  483.59999999999997-26.7L 483.59999999999997-26.7ZM 455.7-42.8Q 450.4-42.8  446.8-39.8Q 443.2-36.8  442.4-31.6L 442.4-31.6L 468.9-31.6Q 468.09999999999997-36.7  464.5-39.75Q 460.9-42.8  455.7-42.8L 455.7-42.8Z"></path></svg>