<svg width="20" height="20" viewBox="0 0 20 20" fill="none" xmlns="http://www.w3.org/2000/svg">
<path d="M12.7164 18.5416H7.28307C3.19141 18.5416 1.44141 16.7916 1.44141 12.6999V12.5916C1.44141 8.89161 2.89974 7.10827 6.16641 6.79994C6.49974 6.77494 6.81641 7.02494 6.84974 7.36661C6.88307 7.70827 6.63307 8.01661 6.28307 8.04994C3.66641 8.29161 2.69141 9.52494 2.69141 12.5999V12.7083C2.69141 16.0999 3.89141 17.2999 7.28307 17.2999H12.7164C16.1081 17.2999 17.3081 16.0999 17.3081 12.7083V12.5999C17.3081 9.50827 16.3164 8.27494 13.6497 8.04994C13.3081 8.01661 13.0497 7.71661 13.0831 7.37494C13.1164 7.03327 13.4081 6.77494 13.7581 6.80827C17.0747 7.09161 18.5581 8.88327 18.5581 12.6083V12.7166C18.5581 16.7916 16.8081 18.5416 12.7164 18.5416Z" fill="#8853FC"/>
<path d="M10 13.1251C9.65833 13.1251 9.375 12.8417 9.375 12.5001V3.01672C9.375 2.67506 9.65833 2.39172 10 2.39172C10.3417 2.39172 10.625 2.67506 10.625 3.01672V12.5001C10.625 12.8417 10.3417 13.1251 10 13.1251Z" fill="#8853FC"/>
<path d="M12.7912 5.50003C12.6329 5.50003 12.4745 5.4417 12.3495 5.3167L9.99954 2.9667L7.64954 5.3167C7.40788 5.55837 7.00788 5.55837 6.76621 5.3167C6.52454 5.07503 6.52454 4.67503 6.76621 4.43337L9.55788 1.6417C9.79954 1.40003 10.1995 1.40003 10.4412 1.6417L13.2329 4.43337C13.4745 4.67503 13.4745 5.07503 13.2329 5.3167C13.1162 5.4417 12.9495 5.50003 12.7912 5.50003Z" fill="#8853FC"/>
</svg>
