<svg width="120" height="120" viewBox="0 0 120 120" fill="none" xmlns="http://www.w3.org/2000/svg">
<path opacity="0.4" d="M105.4 42.9002V77.1C105.4 82.7 102.4 87.9002 97.5498 90.7502L67.8498 107.9C62.9998 110.7 56.9999 110.7 52.0999 107.9L22.3998 90.7502C17.5498 87.9502 14.5498 82.75 14.5498 77.1V42.9002C14.5498 37.3002 17.5498 32.1 22.3998 29.25L52.0999 12.1C56.9499 9.3 62.9498 9.3 67.8498 12.1L97.5498 29.25C102.4 32.1 105.4 37.2502 105.4 42.9002Z" fill="white"/>
<path d="M48.75 60.0001V54.0001C48.75 46.3001 54.2001 43.1502 60.8501 47.0002L66.05 50.0001L71.25 53C77.9 56.85 77.9 63.1502 71.25 67.0002L66.05 70.0001L60.8501 73C54.2001 76.85 48.75 73.7002 48.75 66.0002V60.0001Z" fill="white"/>
</svg>
